# xmcd
#
# Track frame offsets:
#	150
#	21232
#	41537
#	57865
#	78595
#	108193
#	127547
#	165298
#	224759
#
# Disc length: 3181 seconds
#
# Revision: 0
# Processed by: cddbd v1.4PL0 Copyright (c) Steve Scherf et al.
# Submitted via: MusicWizard 6.0.2
#
DISCID=6b0c6b09
DTITLE=Moore, Gary - Back To The Blues (Live Montreux Blues Festival July 7th 1990) Disc 1
DYEAR=1990
DGENRE=Blues
TTITLE0=Oh Pretty Woman
TTITLE1=Walking By Myself
TTITLE2=The Stumble
TTITLE3=All Your Love
TTITLE4=Midnight Blues
TTITLE5=You Don't Love Me
TTITLE6=Still Got The Blues
TTITLE7=Texas Strut
TTITLE8=Moving On
EXTD=
EXTT0=
EXTT1=
EXTT2=
EXTT3=
EXTT4=
EXTT5=
EXTT6=
EXTT7=
EXTT8=
PLAYORDER=
